<?xml version="1.0" encoding="UTF-8"?> <svg xmlns="http://www.w3.org/2000/svg" width="45" height="45" viewBox="0 0 45 45" fill="none"> <rect width="45" height="45" rx="8" fill="#3B6451" fill-opacity="0.7"></rect> <g clip-path="url(#clip0_427_367)"> <path d="M27.0056 27.7392C29.8787 23.2307 29.5175 23.7932 29.6003 23.6757C30.6464 22.2002 31.1992 20.4638 31.1992 18.6538C31.1992 13.8539 27.3042 9.8999 22.498 9.8999C17.7076 9.8999 13.7969 13.8461 13.7969 18.6538C13.7969 20.4626 14.3613 22.2445 15.4417 23.7398L17.9904 27.7392C15.2654 28.158 10.6328 29.4059 10.6328 32.1538C10.6328 33.1555 11.2866 34.583 14.4013 35.6954C16.5762 36.4721 19.4516 36.8999 22.498 36.8999C28.1947 36.8999 34.3633 35.293 34.3633 32.1538C34.3633 29.4055 29.7362 28.1588 27.0056 27.7392ZM16.7631 22.8697C16.7544 22.8561 16.7453 22.8427 16.7359 22.8297C15.8369 21.593 15.3789 20.1273 15.3789 18.6538C15.3789 14.6978 18.5644 11.4819 22.498 11.4819C26.4235 11.4819 29.6172 14.6992 29.6172 18.6538C29.6172 20.1296 29.1678 21.5456 28.3175 22.7497C28.2413 22.8503 28.6389 22.2326 22.498 31.8685L16.7631 22.8697ZM22.498 35.3179C16.2757 35.3179 12.2148 33.4889 12.2148 32.1538C12.2148 31.2565 14.3014 29.781 18.9252 29.2059L21.831 33.7655C21.9024 33.8776 22.001 33.97 22.1176 34.0339C22.2342 34.0979 22.365 34.1314 22.498 34.1314C22.631 34.1314 22.7618 34.0979 22.8784 34.0339C22.995 33.97 23.0936 33.8776 23.165 33.7655L26.0707 29.2059C30.6946 29.781 32.7812 31.2565 32.7812 32.1538C32.7812 33.4775 28.7569 35.3179 22.498 35.3179Z" fill="white"></path> <path d="M22.502 14.6987C20.3211 14.6987 18.5469 16.473 18.5469 18.6538C18.5469 20.8346 20.3211 22.6089 22.502 22.6089C24.6828 22.6089 26.457 20.8346 26.457 18.6538C26.457 16.473 24.6828 14.6987 22.502 14.6987ZM22.502 21.0269C21.1935 21.0269 20.1289 19.9623 20.1289 18.6538C20.1289 17.3453 21.1935 16.2808 22.502 16.2808C23.8105 16.2808 24.875 17.3453 24.875 18.6538C24.875 19.9623 23.8105 21.0269 22.502 21.0269Z" fill="white"></path> </g> <defs> <clipPath id="clip0_427_367"> <rect width="27" height="27" fill="white" transform="translate(9 9.8999)"></rect> </clipPath> </defs> </svg> 