<?xml version="1.0" encoding="UTF-8"?> <svg xmlns="http://www.w3.org/2000/svg" width="45" height="45" viewBox="0 0 45 45" fill="none"> <rect width="45" height="45" rx="8" fill="#3B6451" fill-opacity="0.7"></rect> <g clip-path="url(#clip0_427_374)"> <path d="M35.7257 20.6802C35.5477 19.8112 35.2841 18.9619 34.9387 18.1448C34.5988 17.3419 34.1819 16.5738 33.6939 15.8513C33.2094 15.1346 32.6576 14.4658 32.0459 13.854C31.4341 13.2424 30.7653 12.6905 30.0486 12.206C29.3261 11.718 28.558 11.3011 27.7551 10.9612C26.938 10.6158 26.0888 10.3522 25.2198 10.1742C24.3304 9.99219 23.4154 9.8999 22.5 9.8999C21.5846 9.8999 20.6696 9.99219 19.7802 10.1742C18.9112 10.3522 18.0619 10.6158 17.2449 10.9612C16.442 11.3011 15.6739 11.718 14.9513 12.206C14.2347 12.6905 13.5659 13.2424 12.9541 13.854C12.3425 14.4658 11.7906 15.1346 11.3061 15.8513C10.8181 16.5738 10.4012 17.3419 10.0613 18.1448C9.7159 18.9619 9.45228 19.8112 9.27427 20.6802C9.09229 21.5695 9 22.4845 9 23.3999C9 24.3153 9.09229 25.2303 9.27427 26.1197C9.45229 26.9887 9.71591 27.8379 10.0613 28.655C10.4012 29.4579 10.8181 30.226 11.3061 30.9485C11.7906 31.6652 12.3424 32.334 12.9541 32.9458C13.5659 33.5574 14.2347 34.1093 14.9514 34.5938C15.6739 35.0818 16.442 35.4987 17.2449 35.8386C18.062 36.184 18.9113 36.4476 19.7803 36.6256C20.6696 36.8076 21.5846 36.8999 22.5 36.8999C23.4154 36.8999 24.3304 36.8076 25.2198 36.6256C26.0888 36.4476 26.938 36.184 27.7551 35.8386C28.558 35.4987 29.3261 35.0818 30.0486 34.5938C30.7653 34.1093 31.4341 33.5575 32.0459 32.9458C32.6575 32.334 33.2094 31.6652 33.6939 30.9485C34.1819 30.226 34.5988 29.4579 34.9387 28.655C35.2841 27.8379 35.5477 26.9887 35.7257 26.1197C35.9077 25.2303 36 24.3153 36 23.3999C36 22.4845 35.9077 21.5695 35.7257 20.6802ZM22.5 35.0742C16.0628 35.0742 10.8257 29.8371 10.8257 23.3999C10.8257 16.9627 16.0628 11.7256 22.5 11.7256C28.9372 11.7256 34.1743 16.9627 34.1743 23.3999C34.1743 29.8371 28.9372 35.0742 22.5 35.0742Z" fill="white"></path> <path d="M26.3504 20.1771L23.3474 22.5756L23.0674 14.5052C23.0499 14.0014 22.6273 13.6072 22.1234 13.6246C21.6195 13.6421 21.2253 14.0647 21.2427 14.5685L21.5857 24.4538C21.594 24.6903 21.6937 24.9143 21.8638 25.0787C22.034 25.2431 22.2613 25.335 22.4979 25.3351C22.7013 25.3351 22.9029 25.2671 23.0677 25.1355L27.4898 21.6036C27.8837 21.289 27.948 20.7146 27.6334 20.3206C27.3188 19.9268 26.7444 19.8625 26.3504 20.1771Z" fill="white"></path> </g> <defs> <clipPath id="clip0_427_374"> <rect width="27" height="27" fill="white" transform="translate(9 9.8999)"></rect> </clipPath> </defs> </svg> 