<?xml version="1.0" encoding="UTF-8"?> <svg xmlns="http://www.w3.org/2000/svg" width="45" height="45" viewBox="0 0 45 45" fill="none"> <rect width="45" height="45" rx="8" fill="#3B6451" fill-opacity="0.7"></rect> <g clip-path="url(#clip0_427_355)"> <path d="M30.3423 26.6259C29.7896 26.0504 29.1228 25.7427 28.4162 25.7427C27.7153 25.7427 27.0429 26.0447 26.4673 26.6202L24.6666 28.4153C24.5184 28.3355 24.3702 28.2614 24.2278 28.1873C24.0226 28.0847 23.8289 27.9879 23.6636 27.8853C21.9769 26.814 20.444 25.4178 18.9737 23.6114C18.2614 22.711 17.7827 21.9531 17.4351 21.1838C17.9024 20.7564 18.3355 20.3119 18.7572 19.8846C18.9167 19.725 19.0763 19.5597 19.2359 19.4002C20.4326 18.2035 20.4326 16.6535 19.2359 15.4568L17.6802 13.9011C17.5035 13.7244 17.3212 13.5421 17.1502 13.3597C16.8083 13.0064 16.4493 12.6417 16.0789 12.2998C15.5261 11.7527 14.8651 11.4621 14.1699 11.4621C13.4746 11.4621 12.8022 11.7527 12.2324 12.2998L12.221 12.3112L10.2835 14.2658C9.55406 14.9952 9.13806 15.8842 9.04689 16.9156C8.91012 18.5796 9.4002 20.1296 9.7763 21.1439C10.6995 23.6342 12.0785 25.9421 14.1357 28.4153C16.6316 31.3956 19.6348 33.7491 23.0653 35.4074C24.3759 36.0285 26.1254 36.7636 28.08 36.889C28.1997 36.8947 28.325 36.9004 28.439 36.9004C29.7554 36.9004 30.8609 36.4274 31.7271 35.4871C31.7328 35.4757 31.7442 35.4701 31.7499 35.4587C32.0462 35.0996 32.3881 34.7748 32.7471 34.4272C32.9921 34.1936 33.2429 33.9485 33.4879 33.6921C34.0521 33.1052 34.3484 32.4213 34.3484 31.7204C34.3484 31.0138 34.0464 30.3357 33.4708 29.7658L30.3423 26.6259ZM32.3824 32.6265C32.3767 32.6265 32.3767 32.6322 32.3824 32.6265C32.1601 32.8658 31.9322 33.0824 31.6872 33.3217C31.3168 33.675 30.9407 34.0454 30.5874 34.4614C30.0118 35.0769 29.3337 35.3675 28.4447 35.3675C28.3592 35.3675 28.268 35.3675 28.1826 35.3618C26.4901 35.2535 24.9173 34.5925 23.7377 34.0283C20.5123 32.4669 17.6802 30.2502 15.3267 27.4408C13.3835 25.0987 12.0842 22.9333 11.2237 20.6083C10.6938 19.1893 10.5 18.0838 10.5855 17.041C10.6425 16.3743 10.8989 15.8215 11.3719 15.3485L13.3151 13.4053C13.5943 13.1432 13.8906 13.0007 14.1813 13.0007C14.5403 13.0007 14.8309 13.2173 15.0133 13.3996L15.0303 13.4167C15.378 13.7415 15.7085 14.0777 16.0561 14.4368C16.2327 14.6191 16.4151 14.8015 16.5974 14.9895L18.1531 16.5452C18.7572 17.1493 18.7572 17.7077 18.1531 18.3118C17.9879 18.477 17.8283 18.6423 17.6631 18.8018C17.1844 19.2919 16.7285 19.7478 16.2327 20.1923C16.2213 20.2037 16.2099 20.2094 16.2042 20.2208C15.7142 20.7108 15.8053 21.1895 15.9079 21.5143L15.925 21.5656C16.3296 22.5458 16.8995 23.4689 17.7656 24.5688L17.7713 24.5745C19.3441 26.512 21.0024 28.0221 22.8316 29.1789C23.0653 29.327 23.3046 29.4467 23.5326 29.5607C23.7377 29.6632 23.9315 29.7601 24.0967 29.8627C24.1195 29.8741 24.1423 29.8912 24.1651 29.9026C24.3589 29.9995 24.5412 30.045 24.7293 30.045C25.2022 30.045 25.4986 29.7487 25.5954 29.6518L27.5443 27.7029C27.7381 27.5092 28.0458 27.2756 28.4048 27.2756C28.7581 27.2756 29.0487 27.4978 29.2254 27.6915L29.2368 27.7029L32.3767 30.8428C32.9636 31.4241 32.9636 32.0224 32.3824 32.6265ZM23.5952 16.323C25.0883 16.5737 26.4445 17.2803 27.5272 18.363C28.61 19.4458 29.3109 20.802 29.5673 22.295C29.63 22.6711 29.9548 22.9333 30.3252 22.9333C30.3708 22.9333 30.4107 22.9276 30.4563 22.9219C30.878 22.8535 31.1572 22.4546 31.0888 22.0329C30.7811 20.2265 29.9263 18.5796 28.6214 17.2746C27.3164 15.9697 25.6695 15.1149 23.8631 14.8072C23.4414 14.7388 23.0482 15.018 22.9741 15.434C22.9 15.85 23.1736 16.2546 23.5952 16.323ZM35.9725 21.8107C35.4653 18.836 34.0635 16.1292 31.9094 13.9752C29.7554 11.8211 27.0486 10.4193 24.0739 9.91212C23.6579 9.83804 23.2647 10.123 23.1907 10.539C23.1223 10.9606 23.4015 11.3538 23.8232 11.4279C26.4787 11.8781 28.9006 13.1375 30.8267 15.0579C32.7528 16.984 34.0065 19.4059 34.4567 22.0614C34.5193 22.4375 34.8442 22.6996 35.2146 22.6996C35.2601 22.6996 35.3 22.6939 35.3456 22.6882C35.7616 22.6256 36.0465 22.2267 35.9725 21.8107Z" fill="white"></path> </g> <defs> <clipPath id="clip0_427_355"> <rect width="27" height="27" fill="white" transform="translate(9 9.8999)"></rect> </clipPath> </defs> </svg> 