<?xml version="1.0" encoding="UTF-8"?> <svg xmlns="http://www.w3.org/2000/svg" width="45" height="45" viewBox="0 0 45 45" fill="none"> <rect width="45" height="45" rx="8" fill="#3B6451" fill-opacity="0.7"></rect> <rect x="6" y="9" width="33" height="24" fill="white"></rect> <path fill-rule="evenodd" clip-rule="evenodd" d="M22.5 1C34.9264 1 45 10.8497 45 23C45 35.1503 34.9264 45 22.5 45C10.0736 45 0 35.1503 0 23C0 10.8497 10.0736 1 22.5 1ZM36.7822 31.5285V15.1778L28.4206 23.3531L36.7822 31.5285ZM10.0041 31.8616H34.9965L27.3581 24.393L24.4469 27.239C24.3057 27.3767 24.1145 27.454 23.9151 27.4539H21.085C20.9863 27.454 20.8885 27.435 20.7973 27.3982C20.706 27.3613 20.6231 27.3072 20.5532 27.239L17.6421 24.393L10.0037 31.8616H10.0041ZM8.21777 15.1773V31.529L16.5794 23.3531L8.21777 15.1773ZM35.7193 14.1384H9.28125L21.3964 25.9844H23.604L35.7193 14.1384Z" fill="#769386"></path> </svg> 