<?xml version="1.0" encoding="UTF-8"?> <svg xmlns="http://www.w3.org/2000/svg" width="45" height="45" viewBox="0 0 45 45" fill="none"> <rect width="45" height="45" rx="8" fill="#3B6451" fill-opacity="0.7"></rect> <path d="M23.4421 11C16.582 11 11.0031 16.5767 11 23.4316C10.9993 25.7808 11.6569 28.0685 12.9017 30.0479L13.1973 30.5183L11.9407 35.1062L16.6478 33.8718L17.102 34.1411C19.0112 35.274 21.2002 35.8733 23.4317 35.8741H23.4366C30.2913 35.8741 35.8703 30.297 35.8733 23.4416C35.8745 20.1193 34.5821 16.9959 32.2342 14.6461C29.8862 12.2962 26.7635 11.0011 23.4421 11ZM30.7571 28.7769C30.4454 29.6496 28.952 30.4466 28.2337 30.5542C27.5894 30.6502 26.7746 30.6903 25.8789 30.4061C25.3356 30.2337 24.6395 30.0037 23.7473 29.6188C19.997 27.9998 17.5476 24.2248 17.3606 23.9752C17.1737 23.7258 15.834 21.9485 15.834 20.1087C15.834 18.2692 16.7998 17.3648 17.1425 16.9909C17.4854 16.6167 17.8905 16.5232 18.1396 16.5232C18.3887 16.5232 18.6382 16.5256 18.8561 16.5362C19.0856 16.5477 19.3938 16.4489 19.6972 17.1778C20.0088 17.9264 20.7565 19.7657 20.85 19.9527C20.9435 20.1399 21.0056 20.3582 20.8812 20.6077C20.7565 20.8571 20.3422 21.3954 19.9467 21.886C19.7807 22.0916 19.5645 22.2747 19.7826 22.6489C20.0004 23.0228 20.7512 24.2469 21.8624 25.238C23.2906 26.5113 24.4952 26.9058 24.8691 27.0931C25.2426 27.28 25.4607 27.2486 25.679 26.9996C25.8968 26.7501 26.6136 25.9082 26.8626 25.534C27.1118 25.1598 27.3612 25.2223 27.7038 25.3471C28.0468 25.4714 29.8847 26.3759 30.2585 26.5628C30.6323 26.7501 30.8815 26.8436 30.9749 26.9996C31.0688 27.1556 31.0687 27.9037 30.7571 28.7769Z" fill="white"></path> </svg> 