<?xml version="1.0" encoding="UTF-8"?> <svg xmlns="http://www.w3.org/2000/svg" width="26" height="26" viewBox="0 0 26 26" fill="none"> <path d="M15.6914 13.1387C15.6914 14.4601 14.6202 15.5313 13.2988 15.5313C11.9774 15.5313 10.9062 14.4601 10.9062 13.1387C10.9062 11.8173 11.9774 10.7461 13.2988 10.7461C14.6202 10.7461 15.6914 11.8173 15.6914 13.1387Z" fill="#3B6451" fill-opacity="0.7"></path> <path d="M18.8862 8.90561C18.7712 8.59384 18.5877 8.31181 18.3493 8.08027C18.1178 7.84184 17.8358 7.65837 17.524 7.54336C17.271 7.44517 16.8912 7.32822 16.1913 7.29639C15.4343 7.26187 15.2073 7.25439 13.2908 7.25439C11.3741 7.25439 11.1472 7.26167 10.3903 7.29619C9.69053 7.32822 9.31035 7.44512 9.05767 7.54336C8.74584 7.65832 8.4638 7.8418 8.23232 8.08027C7.9939 8.31182 7.81037 8.59384 7.69521 8.90561C7.59702 9.15854 7.48008 9.53867 7.44824 10.2385C7.41372 10.9953 7.40625 11.2223 7.40625 13.139C7.40625 15.0555 7.41372 15.2824 7.44824 16.0395C7.48008 16.7393 7.59702 17.1192 7.69521 17.3721C7.8103 17.6839 7.99376 17.9659 8.23213 18.1975C8.46364 18.4359 8.74567 18.6194 9.05747 18.7344C9.3104 18.8328 9.69053 18.9497 10.3903 18.9815C11.1472 19.0161 11.3739 19.0233 13.2906 19.0233C15.2075 19.0233 15.4345 19.0161 16.1911 18.9815C16.8909 18.9497 17.2711 18.8328 17.524 18.7344C17.8335 18.615 18.1147 18.4321 18.3493 18.1974C18.5839 17.9628 18.7668 17.6817 18.8862 17.3721C18.9844 17.1192 19.1014 16.7393 19.1334 16.0395C19.1679 15.2824 19.1752 15.0555 19.1752 13.139C19.1752 11.2223 19.1679 10.9953 19.1334 10.2385C19.1016 9.53867 18.9846 9.15849 18.8862 8.90561ZM13.2908 16.8246C11.2551 16.8246 9.60488 15.1745 9.60488 13.1388C9.60488 11.1031 11.2551 9.45303 13.2908 9.45303C15.3264 9.45303 16.9766 11.1031 16.9766 13.1388C16.9766 15.1745 15.3264 16.8246 13.2908 16.8246ZM17.1223 10.1687C16.6466 10.1687 16.261 9.78296 16.261 9.30732C16.261 8.83169 16.6466 8.44595 17.1223 8.44595C17.598 8.44595 17.9836 8.83159 17.9836 9.30727C17.9834 9.78296 17.598 10.1687 17.1223 10.1687Z" fill="#3B6451" fill-opacity="0.7"></path> <path d="M13.2891 0.63916C6.38657 0.63916 0.789062 6.23667 0.789062 13.1392C0.789062 20.0417 6.38657 25.6392 13.2891 25.6392C20.1916 25.6392 25.7891 20.0417 25.7891 13.1392C25.7891 6.23667 20.1916 0.63916 13.2891 0.63916ZM20.4235 16.0984C20.3888 16.8625 20.2673 17.3842 20.0899 17.8408C19.9055 18.3176 19.6235 18.7506 19.262 19.1121C18.9005 19.4736 18.4675 19.7556 17.9907 19.94C17.5342 20.1174 17.0124 20.2387 16.2485 20.2736C15.4831 20.3085 15.2386 20.3169 13.2893 20.3169C11.3397 20.3169 11.0954 20.3085 10.3298 20.2736C9.56592 20.2387 9.04409 20.1174 8.5876 19.94C8.1086 19.7598 7.67471 19.4772 7.31621 19.112C6.95111 18.7535 6.66862 18.3197 6.48843 17.8408C6.31104 17.3843 6.18955 16.8625 6.15483 16.0986C6.11953 15.333 6.11133 15.0885 6.11133 13.1392C6.11133 11.1898 6.11953 10.9453 6.15464 10.1799C6.18931 9.41582 6.31064 8.89419 6.48804 8.43755C6.66828 7.95859 6.9509 7.52474 7.31616 7.16631C7.67462 6.80108 8.10848 6.51851 8.58745 6.33833C9.04409 6.16094 9.56572 6.03965 10.3298 6.00474C11.0952 5.96982 11.3397 5.96143 13.2891 5.96143C15.2384 5.96143 15.4829 5.96982 16.2483 6.00488C17.0124 6.03965 17.534 6.16094 17.9907 6.33813C18.4697 6.51842 18.9036 6.80103 19.2622 7.16626C19.6273 7.52476 19.9097 7.95862 20.0899 8.43755C20.2675 8.89419 20.3888 9.41582 20.4237 10.1799C20.4586 10.9453 20.4668 11.1898 20.4668 13.1392C20.4668 15.0885 20.4586 15.333 20.4235 16.0984Z" fill="#3B6451" fill-opacity="0.7"></path> </svg> 