<?xml version="1.0" encoding="UTF-8"?> <svg xmlns="http://www.w3.org/2000/svg" width="16" height="18" viewBox="0 0 16 18" fill="none"> <path d="M10.857 11.9601C12.5908 9.04561 12.3729 9.40922 12.4228 9.33323C13.0541 8.37944 13.3877 7.25687 13.3877 6.0868C13.3877 2.98386 11.0372 0.427734 8.13685 0.427734C5.24594 0.427734 2.88597 2.97882 2.88597 6.0868C2.88597 7.25612 3.22661 8.40808 3.87855 9.37472L5.41664 11.9602C3.77216 12.2309 0.976562 13.0376 0.976562 14.814C0.976562 15.4616 1.37111 16.3844 3.25073 17.1035C4.5632 17.6057 6.29844 17.8822 8.13685 17.8822C11.5746 17.8822 15.2971 16.8434 15.2971 14.814C15.2971 13.0373 12.5048 12.2314 10.857 11.9601ZM4.67601 8.81219C4.67077 8.8034 4.66528 8.79479 4.65956 8.78635C4.11707 7.98685 3.84068 7.03933 3.84068 6.0868C3.84068 3.52938 5.76301 1.45046 8.13685 1.45046C10.5058 1.45046 12.433 3.5303 12.433 6.0868C12.433 7.04087 12.1619 7.95624 11.6487 8.73467C11.6027 8.79964 11.8426 8.40037 8.13685 14.6296L4.67601 8.81219ZM8.13685 16.8595C4.38187 16.8595 1.93127 15.6771 1.93127 14.814C1.93127 14.234 3.19046 13.2801 5.98075 12.9083L7.73429 15.8559C7.77741 15.9284 7.8369 15.9881 7.90726 16.0295C7.97762 16.0708 8.05657 16.0925 8.13682 16.0925C8.21707 16.0925 8.29603 16.0708 8.36639 16.0295C8.43675 15.9881 8.49624 15.9284 8.53936 15.8559L10.2929 12.9083C13.0832 13.2801 14.3424 14.234 14.3424 14.814C14.3424 15.6698 11.9139 16.8595 8.13685 16.8595Z" fill="white" fill-opacity="0.8"></path> <path d="M8.13676 3.52954C6.8207 3.52954 5.75 4.67652 5.75 6.08635C5.75 7.49617 6.8207 8.64316 8.13676 8.64316C9.45283 8.64316 10.5235 7.49617 10.5235 6.08635C10.5235 4.67652 9.45283 3.52954 8.13676 3.52954ZM8.13676 7.62043C7.34713 7.62043 6.70471 6.93224 6.70471 6.08635C6.70471 5.24045 7.34713 4.55226 8.13676 4.55226C8.9264 4.55226 9.56882 5.24045 9.56882 6.08635C9.56882 6.93224 8.9264 7.62043 8.13676 7.62043Z" fill="white" fill-opacity="0.8"></path> </svg> 