<?xml version="1.0" encoding="UTF-8"?> <svg xmlns="http://www.w3.org/2000/svg" width="115" height="29" viewBox="0 0 115 29" fill="none"> <path d="M41.0623 28.6816H30.9062V28.235H31.2442C31.5146 28.235 31.762 28.122 31.9871 27.8951C32.2122 27.6689 32.3773 27.421 32.4825 27.1513C32.5125 27.0665 32.5386 26.9781 32.5617 26.886C32.5839 26.7939 32.5955 26.7055 32.5955 26.6207V16.6969C32.5955 16.3569 32.4718 16.0699 32.2237 15.8365C31.9763 15.6031 31.6721 15.4856 31.3118 15.4856H30.9738V15.0181H40.8818V17.4196H40.3863C40.3863 17.0086 40.2358 16.6621 39.9362 16.3787C39.6358 16.0953 39.2679 15.9539 38.8331 15.9539H34.4422V21.2449H38.3153C38.7509 21.2449 39.1181 21.0999 39.4184 20.8092C39.7188 20.5193 39.8686 20.1757 39.8686 19.7784H40.3418V23.6457H39.8686C39.8686 23.2347 39.718 22.8846 39.4184 22.5939C39.1181 22.304 38.7501 22.1583 38.3153 22.1583H34.4422V26.1742C34.4422 26.2307 34.446 26.2843 34.4537 26.3336C34.4614 26.3837 34.4721 26.4366 34.4875 26.4931C34.5628 26.8193 34.7425 27.1129 35.0283 27.3746C35.3133 27.637 35.6812 27.7675 36.1314 27.7675H38.8108C39.3961 27.7675 39.9369 27.5551 40.4324 27.1303C40.9279 26.7055 41.2428 26.238 41.378 25.7276L41.8282 25.8342L41.0623 28.6816Z" fill="white"></path> <path d="M56.736 22.6793C56.3603 22.6793 56.0377 22.7931 55.7681 23.0193C55.4977 23.2462 55.3625 23.5224 55.3625 23.8478V28.9359H54.9569C54.7917 28.822 54.6112 28.7372 54.4161 28.6807C54.2209 28.6242 54.0181 28.5959 53.8084 28.5959C53.7032 28.5959 53.6056 28.6031 53.5158 28.6169C53.4259 28.6314 53.336 28.6524 53.2454 28.6807C53.0502 28.7235 52.829 28.7655 52.5809 28.8083C52.3335 28.851 52.0739 28.8793 51.8043 28.8931C51.5638 28.9214 51.3234 28.9424 51.0837 28.9569C50.8433 28.9706 50.6259 28.9779 50.4308 28.9779C48.329 28.9779 46.4677 28.3016 44.8461 26.9482C43.2245 25.5956 42.4141 23.8993 42.4141 21.8587C42.4141 19.8051 43.2245 18.0973 44.8461 16.7374C46.4677 15.3775 48.329 14.6975 50.4308 14.6975C50.536 14.6975 50.6405 14.7011 50.7457 14.7084C50.8502 14.7156 50.9554 14.7193 51.0607 14.7193C51.4962 14.7475 51.9241 14.8077 52.3443 14.8998C52.7645 14.9918 53.1693 15.1158 53.5603 15.2716C53.6056 15.2861 53.6502 15.2963 53.6955 15.3035C53.7408 15.3108 53.7931 15.3144 53.853 15.3144C53.8829 15.3144 53.9091 15.3144 53.9321 15.3144C53.9544 15.3144 53.9805 15.3071 54.0112 15.2934C54.0712 15.2934 54.1272 15.2825 54.1802 15.2615C54.2325 15.2405 54.2816 15.2158 54.327 15.1868C54.4022 15.144 54.4622 15.0911 54.5067 15.0273C54.552 14.9635 54.582 14.9034 54.5966 14.8468L55.0698 14.9106V18.3531H54.552C54.4015 17.9704 54.1994 17.6304 53.9444 17.3332C53.6886 17.036 53.3959 16.7881 53.0664 16.5895C52.7061 16.3488 52.3082 16.1719 51.8726 16.0581C51.4371 15.945 50.9792 15.8878 50.4991 15.8878C48.7277 15.8878 47.2828 16.4757 46.1643 17.6514C45.0458 18.8272 44.4866 20.2299 44.4866 21.8587C44.4866 23.4455 45.042 24.862 46.1528 26.1088C47.2636 27.3556 48.7123 27.979 50.4991 27.979C50.6942 27.979 50.9116 27.9681 51.1521 27.9471C51.3917 27.9261 51.6322 27.8942 51.8726 27.8514C52.1876 27.8086 52.4879 27.7449 52.7737 27.66C53.0587 27.5752 53.3145 27.4759 53.5396 27.3628V23.8471C53.5396 23.5216 53.4082 23.2454 53.1455 23.0186C52.8828 22.7924 52.5563 22.6786 52.1661 22.6786H51.8511V22.211C52.7215 22.211 53.5887 22.211 54.4522 22.211C55.3156 22.211 56.1821 22.211 57.0532 22.211V22.6786H56.736V22.6793Z" fill="white"></path> <path d="M88.1463 24.1236C88.2508 24.4563 88.3038 24.7927 88.3038 25.1327C88.3038 25.643 88.1908 26.1352 87.9658 26.6093C87.7407 27.0841 87.4104 27.5052 86.9748 27.8735C86.5393 28.2417 86.0361 28.5215 85.4661 28.7129C84.8954 28.9043 84.31 29 83.7101 29C83.6501 29 83.5864 28.9963 83.5188 28.9891C83.4512 28.9819 83.3797 28.9782 83.3052 28.9782C82.9749 28.95 82.6484 28.8934 82.3258 28.8079C82.0032 28.7231 81.699 28.6027 81.414 28.4469C81.3387 28.4041 81.2596 28.3722 81.1774 28.3512C81.0944 28.3302 81.0084 28.3193 80.9185 28.3193C80.768 28.3193 80.6289 28.3657 80.5022 28.457C80.3746 28.5491 80.2802 28.673 80.221 28.8289L79.7478 28.8499V25.5988H80.221C80.2809 26.4208 80.6604 27.058 81.3579 27.511C82.0562 27.9648 82.8251 28.1982 83.6663 28.212C83.6809 28.212 83.6924 28.212 83.7001 28.212C83.7078 28.212 83.7185 28.212 83.7339 28.212C84.1541 28.212 84.5635 28.1519 84.9614 28.0315C85.3593 27.9112 85.7081 27.7234 86.0085 27.4683C86.3088 27.2276 86.5262 26.9688 86.6614 26.6926C86.7966 26.4165 86.8642 26.1439 86.8642 25.8742C86.8642 25.3639 86.6652 24.879 86.2673 24.4187C85.8694 23.9583 85.3924 23.6002 84.8378 23.3458C84.6872 23.2748 84.5412 23.2074 84.3984 23.1443C84.2555 23.0805 84.1172 23.0131 83.982 22.9428C83.9221 22.929 83.8691 22.9109 83.8245 22.8899C83.7792 22.8688 83.7346 22.8442 83.6893 22.8152C83.2991 22.6448 82.9127 22.468 82.5294 22.2838C82.1468 22.0997 81.7674 21.9156 81.3925 21.7315C80.6719 21.3632 80.1503 20.9102 79.8277 20.3716C79.5051 19.8337 79.3438 19.2741 79.3438 18.6927C79.3438 18.679 79.3438 18.6681 79.3438 18.6608C79.3438 18.6536 79.3438 18.6434 79.3438 18.6289C79.3737 17.68 79.7755 16.8124 80.5483 16.0258C81.321 15.2393 82.3304 14.8464 83.5772 14.8464C83.697 14.8464 83.8437 14.8609 84.0166 14.8892C84.1886 14.9175 84.3807 14.9458 84.5904 14.974C84.6657 14.9885 84.7479 15.0023 84.8378 15.0168C84.9276 15.0313 85.0175 15.0451 85.1082 15.0596C85.228 15.0741 85.3517 15.0878 85.4799 15.1023C85.6075 15.1168 85.7311 15.1233 85.8517 15.1233C86.0469 15.1233 86.2235 15.106 86.381 15.0704C86.5385 15.0349 86.6622 14.9675 86.7528 14.8689V14.6355H87.226V17.9077H86.7759C86.6407 17.1994 86.2919 16.6398 85.7288 16.2288C85.1658 15.8178 84.5612 15.5916 83.9159 15.5489C83.8706 15.5489 83.8291 15.5489 83.7923 15.5489C83.7546 15.5489 83.7208 15.5489 83.6909 15.5489C83.1055 15.5634 82.557 15.7265 82.047 16.0374C81.5361 16.3491 81.1912 16.8377 81.0115 17.5039C80.9961 17.6032 80.9777 17.7025 80.9554 17.8011C80.9331 17.9004 80.9293 17.9997 80.9439 18.0983C80.9439 18.7217 81.2027 19.2284 81.7205 19.6177C82.2382 20.0077 82.8128 20.344 83.4427 20.6267C83.6824 20.7405 83.9267 20.8464 84.1748 20.9457C84.4222 21.045 84.6511 21.1443 84.8616 21.2429C84.9215 21.2712 84.9852 21.2994 85.0528 21.3277C85.1204 21.356 85.1842 21.3842 85.2441 21.4125C85.7242 21.6249 86.1752 21.8554 86.5953 22.1033C87.0155 22.3513 87.3758 22.7021 87.6762 23.1552C87.8836 23.469 88.041 23.7909 88.1463 24.1236Z" fill="white"></path> <path d="M99.3653 21.7646C98.4497 22.4656 97.4434 22.873 96.3479 22.9868C96.2581 22.9868 96.1636 22.9904 96.0668 22.9977C95.9692 23.0049 95.8755 23.0086 95.7856 23.0086C95.3954 23.0086 95.0052 22.9694 94.6149 22.8919C94.2247 22.8143 93.8491 22.6976 93.4888 22.541V26.6207C93.4888 26.7055 93.5003 26.7947 93.5226 26.886C93.5449 26.9781 93.571 27.0665 93.6017 27.1513C93.7069 27.421 93.8683 27.6689 94.0857 27.8951C94.303 28.122 94.555 28.235 94.84 28.235H95.9431V28.6816H89.6602V28.235H90.2909C90.5613 28.235 90.8086 28.122 91.0337 27.8951C91.2588 27.6689 91.4239 27.421 91.5292 27.1513C91.5591 27.0665 91.5852 26.9781 91.6083 26.886C91.6306 26.7939 91.6421 26.7055 91.6421 26.6207V16.6969C91.6421 16.3714 91.5146 16.088 91.2595 15.8466C91.0037 15.606 90.7041 15.4856 90.3585 15.4856H89.5703V15.0181H95.7856C97.0316 15.0181 98.1685 15.358 99.1971 16.038C100.225 16.7179 100.74 17.7096 100.74 19.0129C100.74 20.1467 100.281 21.0637 99.3653 21.7646ZM98.6448 18.9281C98.6448 18.8716 98.6371 18.8151 98.6225 18.7578C98.5626 18.0351 98.2922 17.3732 97.8121 16.7709C97.3312 16.1692 96.6713 15.8676 95.8302 15.8676H93.488V21.711C93.6977 21.9096 93.942 22.0546 94.2201 22.1467C94.4974 22.2387 94.7862 22.2989 95.0874 22.3272C95.2072 22.3417 95.327 22.3518 95.4476 22.3591C95.5675 22.3663 95.6804 22.3699 95.7856 22.3699C96.6114 22.3699 97.2682 22.0727 97.756 21.4776C98.2438 20.8824 98.5326 20.2308 98.6233 19.5225C98.6233 19.4515 98.6271 19.3812 98.6348 19.3102C98.6425 19.2391 98.6463 19.1688 98.6463 19.0978C98.6448 19.0419 98.6448 18.9847 98.6448 18.9281Z" fill="white"></path> <path d="M109.011 28.6816V28.235H109.349C109.499 28.235 109.642 28.2031 109.777 28.1393C109.912 28.0755 110.017 27.9944 110.092 27.895C110.137 27.8523 110.171 27.8066 110.193 27.7573C110.215 27.708 110.227 27.6551 110.227 27.5978C110.242 27.5696 110.249 27.5449 110.249 27.5232C110.249 27.5022 110.249 27.4775 110.249 27.4485C110.249 27.4057 110.245 27.3637 110.238 27.3209C110.23 27.2782 110.219 27.2361 110.204 27.1933L108.718 23.5812H103.628L102.57 26.5351C102.554 26.5779 102.544 26.6171 102.536 26.6519C102.528 26.6874 102.524 26.7265 102.524 26.7686C102.509 26.8113 102.502 26.8505 102.502 26.8853C102.502 26.9208 102.502 26.9592 102.502 27.002C102.502 27.2434 102.574 27.4695 102.716 27.6819C102.859 27.8943 103.072 28.0502 103.357 28.1495C103.447 28.164 103.548 28.1814 103.661 28.2024C103.774 28.2234 103.89 28.2343 104.01 28.2343V28.6808H99.2812V28.2343H99.6192C99.6945 28.2343 99.7767 28.2234 99.8666 28.2024C99.9565 28.1814 100.046 28.1495 100.137 28.1067C100.347 28.0081 100.557 27.8697 100.768 27.6921C100.977 27.5152 101.158 27.3275 101.308 27.1288C101.384 27.0303 101.447 26.9309 101.5 26.8316C101.552 26.733 101.593 26.6403 101.623 26.5554L105.722 15.0166H107.163L111.892 26.5554C111.937 26.6403 111.989 26.7359 112.049 26.8425C112.109 26.9491 112.184 27.052 112.274 27.1506C112.424 27.3209 112.593 27.4869 112.781 27.65C112.969 27.8131 113.168 27.9509 113.378 28.0647C113.483 28.1074 113.588 28.1466 113.693 28.1814C113.798 28.2169 113.903 28.2343 114.008 28.2343H114.346V28.6808H109.011V28.6816ZM105.994 16.9941L103.989 22.6041H108.313L105.994 16.9941Z" fill="white"></path> <path d="M70.7364 24.5769C71.3371 24.2992 71.8441 23.9636 72.3426 23.6331C72.4678 23.5497 72.5923 23.4678 72.7175 23.3866C72.7759 23.3489 72.8343 23.3119 72.8926 23.275C73.8429 22.6769 74.8822 22.1833 76.6921 22.1833V21.3707C74.2792 21.3707 73.054 22.1681 71.8794 22.9473C71.8687 22.9546 71.8579 22.9618 71.8472 22.9691C71.5691 23.1532 71.2933 23.3351 71.0052 23.5055C70.1288 24.0202 69.124 24.4188 67.497 24.4188C65.3346 24.4188 64.2722 23.7142 63.1468 22.9691C62.2818 22.3957 61.3946 21.8085 60.0311 21.533C60.0265 21.4374 60.0249 21.3424 60.0249 21.2453V21.0546C60.0272 20.972 60.0311 20.8901 60.0364 20.8089C60.0979 19.8085 60.3721 18.8604 60.8576 17.9622C61.3831 16.9923 62.2165 16.3015 63.3573 15.8912C63.4479 15.8629 63.5378 15.8347 63.6277 15.8057C63.7183 15.7774 63.8082 15.7498 63.8981 15.7216C64.0786 15.6788 64.2622 15.6462 64.4504 15.6252C64.6378 15.6041 64.8145 15.594 64.9789 15.594C66.2694 15.594 67.4301 16.0471 68.458 16.9539C69.4858 17.86 70.2102 18.8799 70.6311 20.0137C70.7656 20.3964 70.8716 20.7966 70.9469 21.2141C71.0214 21.6316 71.059 22.0535 71.059 22.479V22.6211C71.1765 22.545 71.2948 22.4667 71.4139 22.3877C71.9132 22.0564 72.4394 21.707 73.0716 21.4105C72.9664 19.6469 72.2312 18.1159 70.867 16.8162C69.389 15.4062 67.6137 14.7009 65.542 14.7009C63.4848 14.7009 61.7141 15.4062 60.2277 16.8162C59.0555 17.9282 58.3457 19.2098 58.0999 20.661C58.033 21.0488 58 21.4504 58 21.8629C58 22.2166 58.0246 22.5609 58.0745 22.8958C58.295 24.4036 59.0132 25.7302 60.2285 26.8777C61.7149 28.2796 63.4856 28.9813 65.5427 28.9813C67.6153 28.9813 69.3898 28.2796 70.8677 26.8777C71.6851 26.1028 72.2766 25.2452 72.6415 24.3043C71.9916 24.7342 71.2849 25.1843 70.3584 25.5033C70.3162 25.5895 70.2724 25.6758 70.2263 25.7613C69.7009 26.7327 68.8682 27.4235 67.7267 27.8338C67.4563 27.9331 67.1866 28.0078 66.9162 28.0571C66.6458 28.1071 66.3762 28.131 66.1058 28.131C64.8299 28.131 63.6738 27.6736 62.6383 26.761C61.602 25.8469 60.8738 24.8306 60.4543 23.7113C60.3929 23.5395 60.3391 23.3641 60.2899 23.1851C60.2308 22.9654 60.1801 22.74 60.1394 22.5109C60.1317 22.4703 60.1255 22.4305 60.1194 22.3899C61.171 22.6523 61.8985 23.1343 62.6536 23.6352C63.8389 24.421 65.0634 25.2329 67.4985 25.2329C68.9058 25.2329 69.9091 24.9611 70.7341 24.5805C70.7341 24.5776 70.7348 24.5776 70.7364 24.5769Z" fill="white"></path> <path d="M11.954 0.662008L11.6482 0.34668L11.3425 0.662008C10.8916 1.12739 0.296875 12.1197 0.296875 17.905C0.296875 23.8115 5.38912 28.6168 11.6482 28.6168C17.9073 28.6168 22.9996 23.8115 22.9996 17.905C22.9996 12.1197 12.4049 1.12666 11.954 0.662008ZM22.1369 18.685C22.0962 18.6872 22.0555 18.6894 22.0155 18.6901C21.9034 18.6857 21.7866 18.6836 21.6583 18.6836C21.5224 18.6836 21.3979 18.6857 21.2827 18.6908C17.6746 18.8111 14.4398 20.6473 12.6292 23.602C12.4172 23.947 12.229 24.3037 12.0638 24.6705V19.0315C12.0715 17.4556 12.5132 15.9087 13.3436 14.5546C14.5612 12.564 16.5707 11.0664 18.8891 10.4067C20.7242 13.1164 22.1707 15.8906 22.1707 17.905C22.17 18.1674 22.1584 18.427 22.1369 18.685ZM12.063 9.57239C12.0784 7.613 12.7721 5.70871 14.0257 4.15672C15.3508 5.68986 16.9709 7.6681 18.4166 9.72389C15.9961 10.4727 13.9059 12.0675 12.6246 14.1624C12.4141 14.506 12.2274 14.8612 12.0638 15.2258V9.57239H12.063ZM11.2334 9.80218V15.2287C11.069 14.8634 10.8824 14.5067 10.6711 14.1624C9.38979 12.0667 7.29958 10.472 4.87905 9.72317C6.32399 7.66737 7.94408 5.68914 9.26919 4.15599C10.5359 5.72393 11.2303 7.64997 11.2326 9.63255C11.2326 9.63545 11.2326 9.63763 11.2326 9.64053C11.2326 9.69562 11.2326 9.74926 11.2334 9.80218ZM11.6482 1.51231C12.0108 1.89723 12.6691 2.60834 13.4857 3.53693C12.6438 4.54018 12.0216 5.68624 11.6475 6.90406C11.2734 5.68624 10.6519 4.54163 9.80921 3.53838C10.6266 2.60907 11.2857 1.89795 11.6482 1.51231ZM4.40739 10.4067C6.72498 11.0664 8.7353 12.5633 9.95209 14.5546C10.7894 15.921 11.2326 17.4846 11.2326 19.075H11.2334V24.6734C11.0683 24.3058 10.8793 23.9477 10.6665 23.602C8.85514 20.6466 5.62034 18.8104 2.01606 18.6908C1.89776 18.6857 1.77331 18.6836 1.63734 18.6836C1.50675 18.6836 1.38769 18.6857 1.27784 18.6901C1.23789 18.6886 1.19795 18.6872 1.15954 18.6857C1.13803 18.4277 1.12727 18.1674 1.12727 17.9043C1.12651 15.8906 2.57222 13.1171 4.40739 10.4067ZM1.25863 19.4744C1.26555 19.4744 1.27246 19.4737 1.27937 19.4737C1.39153 19.478 1.50829 19.4802 1.63734 19.4802C1.76563 19.4802 1.88239 19.478 1.99455 19.4737C5.31077 19.5875 8.28361 21.2765 9.94902 23.9949C10.665 25.1605 11.0944 26.4762 11.2035 27.8245C6.16729 27.6251 2.03526 24.071 1.25863 19.4744ZM12.0922 27.8237C12.2013 26.4754 12.6307 25.1598 13.3467 23.9941C15.0113 21.278 17.9834 19.589 21.3011 19.4737C21.4133 19.478 21.5293 19.4802 21.6576 19.4802C21.7882 19.4802 21.9072 19.478 22.0163 19.4737C22.0232 19.4737 22.0301 19.4744 22.0371 19.4744C21.2604 24.0717 17.1284 27.6258 12.0922 27.8237Z" fill="white"></path> </svg> 