<?xml version="1.0" encoding="UTF-8"?> <svg xmlns="http://www.w3.org/2000/svg" width="21" height="21" viewBox="0 0 21 21" fill="none"><path d="M16.2136 12.7202C15.7932 12.2825 15.2861 12.0485 14.7487 12.0485C14.2156 12.0485 13.7042 12.2781 13.2665 12.7159L11.897 14.081C11.7843 14.0204 11.6717 13.964 11.5633 13.9077C11.4073 13.8297 11.2599 13.756 11.1342 13.678C9.85142 12.8632 8.6856 11.8014 7.56746 10.4276C7.02573 9.74283 6.66168 9.16642 6.39731 8.58134C6.75269 8.2563 7.08207 7.91826 7.40277 7.59322C7.52412 7.47187 7.64547 7.34619 7.76682 7.22484C8.67694 6.31472 8.67694 5.13591 7.76682 4.22579L6.58367 3.04264C6.44932 2.90829 6.31063 2.7696 6.18062 2.63092C5.92058 2.36222 5.64755 2.08485 5.36585 1.82482C4.94546 1.40876 4.44273 1.18774 3.914 1.18774C3.38526 1.18774 2.87386 1.40876 2.44047 1.82482L2.43181 1.83349L0.958286 3.32001C0.403549 3.87475 0.0871755 4.55083 0.0178333 5.33526C-0.0861799 6.60076 0.286534 7.77958 0.572571 8.55101C1.27466 10.4449 2.32346 12.2001 3.88799 14.081C5.78623 16.3477 8.07019 18.1376 10.6792 19.3987C11.676 19.8711 13.0065 20.4302 14.493 20.5255C14.584 20.5299 14.6794 20.5342 14.766 20.5342C15.7672 20.5342 16.6079 20.1745 17.2667 19.4594C17.271 19.4507 17.2797 19.4464 17.284 19.4377C17.5094 19.1647 17.7694 18.9177 18.0425 18.6533C18.2288 18.4756 18.4195 18.2892 18.6059 18.0942C19.0349 17.6478 19.2603 17.1278 19.2603 16.5947C19.2603 16.0573 19.0306 15.5416 18.5929 15.1082L16.2136 12.7202ZM17.7651 17.2838C17.7608 17.2881 17.7608 17.2838 17.7651 17.2838C17.5961 17.4658 17.4227 17.6305 17.2364 17.8125C16.9547 18.0812 16.6686 18.3629 16.3999 18.6793C15.9622 19.1474 15.4465 19.3684 14.7704 19.3684C14.7054 19.3684 14.636 19.3684 14.571 19.364C13.2839 19.2817 12.0877 18.779 11.1906 18.3499C8.73761 17.1624 6.58367 15.4766 4.79377 13.34C3.31592 11.5587 2.32779 9.91185 1.67338 8.14362C1.27033 7.06449 1.12297 6.22371 1.18798 5.43061C1.23132 4.92355 1.42635 4.50316 1.78606 4.14345L3.26391 2.66559C3.47627 2.46623 3.70164 2.35789 3.92266 2.35789C4.1957 2.35789 4.41673 2.52257 4.55541 2.66126L4.56841 2.67426C4.83278 2.92129 5.08414 3.17699 5.34851 3.45002C5.48286 3.58871 5.62155 3.72739 5.76023 3.87041L6.94338 5.05356C7.40277 5.51295 7.40277 5.93767 6.94338 6.39707C6.8177 6.52275 6.69635 6.64843 6.57067 6.76978C6.20662 7.14249 5.85991 7.48921 5.48286 7.82725C5.47419 7.83592 5.46553 7.84025 5.46119 7.84892C5.08848 8.22163 5.15782 8.58568 5.23583 8.83271L5.24883 8.87171C5.55654 9.61714 5.98993 10.3192 6.64868 11.1557L6.65301 11.16C7.84916 12.6335 9.11032 13.782 10.5015 14.6618C10.6792 14.7745 10.8612 14.8655 11.0346 14.9522C11.1906 15.0302 11.3379 15.1038 11.4636 15.1819C11.481 15.1905 11.4983 15.2035 11.5156 15.2122C11.663 15.2859 11.8017 15.3205 11.9447 15.3205C12.3044 15.3205 12.5298 15.0952 12.6034 15.0215L14.0856 13.5393C14.233 13.392 14.467 13.2143 14.74 13.2143C15.0087 13.2143 15.2298 13.3833 15.3641 13.5306L15.3728 13.5393L17.7608 15.9273C18.2071 16.3693 18.2071 16.8244 17.7651 17.2838ZM11.0822 4.88454C12.2177 5.07523 13.2492 5.61263 14.0726 6.43607C14.8961 7.25951 15.4291 8.29097 15.6242 9.42645C15.6718 9.71249 15.9189 9.91185 16.2006 9.91185C16.2352 9.91185 16.2656 9.90751 16.3002 9.90318C16.6209 9.85117 16.8333 9.5478 16.7813 9.22709C16.5473 7.85325 15.8972 6.60076 14.9047 5.6083C13.9123 4.61584 12.6598 3.96576 11.2859 3.73173C10.9652 3.67972 10.6662 3.89208 10.6098 4.20845C10.5535 4.52483 10.7615 4.83253 11.0822 4.88454ZM20.4954 9.05807C20.1097 6.79578 19.0436 4.73719 17.4054 3.09898C15.7672 1.46077 13.7086 0.394636 11.4463 0.00891978C11.1299 -0.0474207 10.8309 0.169274 10.7745 0.485647C10.7225 0.806355 10.9349 1.10539 11.2556 1.16173C13.2752 1.50411 15.1171 2.4619 16.5819 3.92242C18.0468 5.38727 19.0002 7.22917 19.3426 9.24876C19.3903 9.5348 19.6373 9.73416 19.919 9.73416C19.9537 9.73416 19.984 9.72982 20.0187 9.72549C20.3351 9.67782 20.5518 9.37445 20.4954 9.05807Z" fill="white"></path></svg> 