<?xml version="1.0" encoding="UTF-8"?> <svg xmlns="http://www.w3.org/2000/svg" width="15" height="15" viewBox="0 0 15 15" fill="none"><path d="M6.47725 1.875C5.56701 1.875 4.67721 2.14492 3.92038 2.65062C3.16354 3.15632 2.57366 3.87509 2.22533 4.71604C1.87699 5.55699 1.78585 6.48235 1.96343 7.3751C2.14101 8.26785 2.57933 9.08789 3.22297 9.73153C3.8666 10.3752 4.68665 10.8135 5.57939 10.9911C6.47214 11.1686 7.3975 11.0775 8.23845 10.7292C9.0794 10.3808 9.79818 9.79095 10.3039 9.03412C10.8096 8.27728 11.0795 7.38748 11.0795 6.47725C11.0794 5.25668 10.5945 4.08612 9.73144 3.22305C8.86837 2.35998 7.69782 1.87508 6.47725 1.875Z" stroke="white" stroke-miterlimit="10"></path><path d="M9.91089 9.91083L13.125 13.125" stroke="white" stroke-miterlimit="10" stroke-linecap="round"></path></svg> 