<?xml version="1.0" encoding="UTF-8"?> <svg xmlns="http://www.w3.org/2000/svg" width="26" height="26" viewBox="0 0 26 26" fill="none"> <path d="M12.5312 25.6387C19.4365 25.6387 25.0312 20.0439 25.0312 13.1387C25.0312 6.23346 19.4365 0.638672 12.5312 0.638672C5.62604 0.638672 0.03125 6.23346 0.03125 13.1387C0.03125 20.0439 5.62604 25.6387 12.5312 25.6387ZM5.75104 12.8678L17.8031 8.22096C18.3625 8.01888 18.851 8.35742 18.6698 9.20325L18.6708 9.20221L16.6187 18.8699C16.4667 19.5553 16.0594 19.722 15.4896 19.3991L12.3646 17.096L10.8573 18.548C10.6906 18.7147 10.55 18.8553 10.2271 18.8553L10.449 15.6751L16.2406 10.4428C16.4927 10.221 16.1844 10.096 15.8521 10.3168L8.69479 14.823L5.60938 13.8605C4.93958 13.648 4.925 13.1908 5.75104 12.8678Z" fill="#3B6451" fill-opacity="0.7"></path> </svg> 