<?xml version="1.0" encoding="UTF-8"?> <svg xmlns="http://www.w3.org/2000/svg" width="26" height="26" viewBox="0 0 26 26" fill="none"> <path d="M13.0313 0.638672C10.559 0.638672 8.14224 1.37178 6.08663 2.7453C4.03101 4.11882 2.42886 6.07105 1.48276 8.35513C0.536666 10.6392 0.289124 13.1525 0.77144 15.5773C1.25375 18.0021 2.44426 20.2293 4.19242 21.9775C5.94058 23.7257 8.16786 24.9162 10.5926 25.3985C13.0174 25.8808 15.5307 25.6333 17.8148 24.6872C20.0989 23.7411 22.0511 22.1389 23.4246 20.0833C24.7981 18.0277 25.5313 15.6109 25.5313 13.1387C25.5313 9.82346 24.2143 6.64404 21.8701 4.29984C19.5259 1.95563 16.3465 0.638672 13.0313 0.638672ZM20.2358 18.0307C19.8722 18.0819 18.0937 18.0307 18.0014 18.0307C17.5417 18.0367 17.0981 17.8612 16.767 17.5421C16.392 17.1799 16.0568 16.7821 15.6903 16.4057C15.5824 16.2902 15.465 16.1838 15.3395 16.0875C15.0469 15.8631 14.7571 15.9128 14.6193 16.2594C14.5117 16.6324 14.4367 17.0141 14.3949 17.4C14.3707 17.7495 14.1491 17.9682 13.7571 17.9924C13.5142 18.0051 13.2713 18.0108 13.0313 18.0037C12.1563 17.9989 11.295 17.7862 10.5185 17.383C9.67801 16.9151 8.94568 16.2753 8.36932 15.5051C7.42188 14.2949 6.66478 12.9654 5.98864 11.5946C5.95313 11.525 5.25995 10.0506 5.2429 9.981C5.1804 9.74946 5.2429 9.52645 5.43466 9.44833C5.55682 9.40145 7.84091 9.44833 7.87926 9.44833C8.0492 9.44717 8.21509 9.50008 8.35297 9.59941C8.49086 9.69874 8.59359 9.83934 8.64631 10.0009C9.06891 11.0818 9.64697 12.0954 10.3622 13.0094C10.4624 13.1312 10.5796 13.2378 10.7102 13.3262C10.8963 13.454 11.0724 13.41 11.1492 13.1941C11.2402 12.8965 11.2936 12.5887 11.3082 12.2779C11.321 11.6614 11.3082 11.2566 11.2742 10.6401C11.2514 10.2452 11.1122 9.90003 10.5298 9.78782C10.3509 9.75515 10.3352 9.60742 10.4503 9.45969C10.6903 9.15429 11.0185 9.10458 11.3864 9.08611C11.9347 9.05486 12.483 9.07617 13.0313 9.08611H13.1506C13.3892 9.08524 13.6273 9.10952 13.8608 9.15856C13.999 9.18676 14.1243 9.25882 14.2183 9.36401C14.3122 9.46919 14.3697 9.60189 14.3821 9.74236C14.4103 9.8979 14.4222 10.0559 14.4176 10.214C14.4034 10.8858 14.3707 11.5591 14.3636 12.231C14.357 12.4976 14.3813 12.764 14.4361 13.025C14.5142 13.383 14.7599 13.4725 15.0043 13.214C15.3209 12.8805 15.6111 12.5229 15.8722 12.1444C16.3349 11.4544 16.7162 10.7132 17.0085 9.93554C17.1676 9.5364 17.2926 9.44833 17.7188 9.44833H20.142C20.2861 9.4458 20.4298 9.46495 20.5682 9.50515C20.6172 9.51802 20.663 9.54087 20.7027 9.57226C20.7425 9.60365 20.7753 9.64291 20.7992 9.68758C20.823 9.73226 20.8374 9.78137 20.8414 9.83186C20.8454 9.88235 20.839 9.93312 20.8224 9.981C20.7031 10.5122 20.4162 10.9654 20.1122 11.4015C19.6193 12.0989 19.0994 12.7793 18.5952 13.4682C18.5345 13.5573 18.479 13.6498 18.429 13.7452C18.2386 14.089 18.2528 14.2807 18.5284 14.5648C18.9687 15.0179 19.4389 15.4412 19.8636 15.9071C20.1751 16.2461 20.4565 16.6116 20.7045 16.9995C21.0071 17.4881 20.8153 17.9483 20.2358 18.0307Z" fill="#3B6451" fill-opacity="0.7"></path> </svg> 