<?xml version="1.0" encoding="UTF-8"?> <svg xmlns="http://www.w3.org/2000/svg" width="25" height="25" viewBox="0 0 25 25" fill="none"><path d="M12.4421 0C5.58203 0 0.00312553 5.57666 5.32405e-07 12.4316C-0.000683061 14.7808 0.656933 17.0685 1.90166 19.0479L2.19727 19.5183L0.940723 24.1062L5.64775 22.8718L6.10205 23.1411C8.01123 24.274 10.2002 24.8733 12.4317 24.8741H12.4366C19.2913 24.8741 24.8703 19.297 24.8733 12.4416C24.8745 9.11934 23.5821 5.9959 21.2342 3.64609C18.8862 1.29619 15.7635 0.00107422 12.4421 0ZM19.7571 17.7769C19.4454 18.6496 17.952 19.4466 17.2337 19.5542C16.5894 19.6502 15.7746 19.6903 14.8789 19.4061C14.3356 19.2337 13.6395 19.0037 12.7473 18.6188C8.99697 16.9998 6.54756 13.2248 6.36064 12.9752C6.17373 12.7258 4.83398 10.9485 4.83398 9.10869C4.83398 7.26924 5.7998 6.36484 6.14248 5.99092C6.48535 5.6167 6.89053 5.52324 7.13955 5.52324C7.38867 5.52324 7.63818 5.52559 7.85606 5.53623C8.08565 5.54766 8.39385 5.44893 8.69717 6.17783C9.00879 6.92637 9.75654 8.76572 9.85 8.95273C9.94346 9.13994 10.0056 9.3582 9.88125 9.60772C9.75654 9.85713 9.34219 10.3954 8.94668 10.886C8.78066 11.0916 8.56445 11.2747 8.78262 11.6489C9.00039 12.0228 9.75117 13.2469 10.8624 14.238C12.2906 15.5113 13.4952 15.9058 13.8691 16.0931C14.2426 16.28 14.4607 16.2486 14.679 15.9996C14.8968 15.7501 15.6136 14.9082 15.8626 14.534C16.1118 14.1598 16.3612 14.2223 16.7038 14.3471C17.0468 14.4714 18.8847 15.3759 19.2585 15.5628C19.6323 15.7501 19.8815 15.8436 19.9749 15.9996C20.0687 16.1556 20.0687 16.9037 19.7571 17.7769Z" fill="white"></path></svg> 