<?xml version="1.0" encoding="UTF-8"?> <svg xmlns="http://www.w3.org/2000/svg" width="26" height="26" viewBox="0 0 26 26" fill="none"> <path d="M11.0312 15.1557L14.4984 13.1442L11.0312 11.1228V15.1557Z" fill="#3B6451" fill-opacity="0.7"></path> <path d="M12.7734 0.638672C10.3012 0.638672 7.88443 1.37178 5.82881 2.7453C3.7732 4.11882 2.17104 6.07105 1.22495 8.35513C0.278854 10.6392 0.0313119 13.1525 0.513627 15.5773C0.995942 18.0021 2.18645 20.2293 3.93461 21.9775C5.68276 23.7257 7.91005 24.9162 10.3348 25.3985C12.7596 25.8808 15.2729 25.6333 17.557 24.6872C19.8411 23.7411 21.7933 22.1389 23.1668 20.0833C24.5403 18.0277 25.2734 15.6109 25.2734 13.1387C25.2734 9.82346 23.9565 6.64404 21.6123 4.29984C19.2681 1.95563 16.0886 0.638672 12.7734 0.638672ZM19.3524 15.3508C19.3526 15.6778 19.2884 16.0015 19.1634 16.3036C19.0385 16.6058 18.8552 16.8803 18.6241 17.1115C18.393 17.3428 18.1186 17.5262 17.8166 17.6514C17.5146 17.7765 17.1908 17.841 16.8639 17.841H8.68298C8.35605 17.841 8.03232 17.7765 7.7303 17.6514C7.42827 17.5262 7.15387 17.3428 6.92277 17.1115C6.69167 16.8803 6.50841 16.6058 6.38345 16.3036C6.25849 16.0015 6.19428 15.6778 6.19449 15.3508V10.9265C6.19428 10.5996 6.25849 10.2758 6.38345 9.97369C6.50841 9.67158 6.69167 9.39706 6.92277 9.16581C7.15387 8.93456 7.42827 8.75111 7.7303 8.62595C8.03232 8.50079 8.35605 8.43637 8.68298 8.43637H16.8639C17.1908 8.43637 17.5146 8.50079 17.8166 8.62595C18.1186 8.75111 18.393 8.93456 18.6241 9.16581C18.8552 9.39706 19.0385 9.67158 19.1634 9.97369C19.2884 10.2758 19.3526 10.5996 19.3524 10.9265V15.3508Z" fill="#3B6451" fill-opacity="0.7"></path> </svg> 